<?xml version="1.0" encoding="UTF-8"?>
<svg width="128px" height="130px" viewBox="0 0 128 130" version="1.1" xmlns="http://www.w3.org/2000/svg" xmlns:xlink="http://www.w3.org/1999/xlink">
    <title>icon</title>
    <g id="Page-1" stroke="none" stroke-width="1" fill="none" fill-rule="evenodd">
        <g id="icon">
            <rect id="backgroundrect" x="0" y="0" width="128" height="128"></rect>
            <g id="Layer-1" fill-rule="nonzero">
                <g id="svg_1">
                    <path d="M70.1607505,0 C38.2158515,0 12.320221,26.3003 12.320221,58.7444 C12.320221,68.4554 14.6549365,77.6074 18.7624487,85.6778 C22.6818012,82.2952 26.6523536,80.8483 29.8421075,80.0813 C29.9035474,73.1796 32.9998615,66.0465 38.5422509,60.3603 C44.0936003,54.6624 51.2603066,51.3942 58.2017333,51.3929 C63.619963,51.3929 68.5786735,53.4196 72.1652267,57.0986 C80.6144905,65.7696 79.2180132,80.7833 68.9882727,91.2782 C63.4343633,96.9774 56.267657,100.2456 49.3262303,100.2456 C47.4395139,100.2456 45.5873574,99.9947 43.8145608,99.4981 C43.6353611,99.4929 43.4049616,99.5098 43.2577619,99.5306 C40.9307263,100.4068 38.7944104,100.8514 36.8296141,101.1998 C34.7828981,101.5625 33.9265797,101.7497 33.234101,102.2151 C33.2827409,102.8443 33.3800207,103.6282 33.4453006,104.1339 C43.4331215,112.4773 56.2202971,117.4875 70.1620305,117.4875 C102.104369,117.4875 128,91.1872 128,58.7444 C128,26.3016 102.104369,0 70.1607505,0 Z M91.0797505,48.9944 C84.8282425,48.9944 79.7594521,43.8477 79.7594521,37.4972 C79.7594521,31.1467 84.8282425,26 91.0797505,26 C97.3312586,26 102.400049,31.1467 102.400049,37.4972 C102.400049,43.8477 97.3325386,48.9944 91.0797505,48.9944 Z" id="svg_2" fill="#F9A1A1"></path>
                    <path d="M35.7275363,94.796 C37.3876931,94.5022 39.2462495,94.1226 41.1726459,93.3816 C42.3950435,92.911 44.5159995,92.9292 45.1956782,93.1372 C46.4935957,93.535 47.881113,93.7443 49.3262303,93.7443 C54.5703803,93.7443 60.0794897,91.1768 64.4391614,86.7035 C72.1703466,78.7709 73.566824,67.7755 67.6161153,61.6707 C65.2417199,59.2345 61.8983663,57.8929 58.2030133,57.8929 C52.9588633,57.8929 47.4510339,60.4591 43.0913622,64.9324 C37.7793723,70.3833 35.4753767,77.272 36.4737748,83.0323 C36.7348943,84.5429 35.323057,85.631 34.1876992,85.8325 C30.7611457,86.4396 26.0699547,87.2703 21.5707633,91.8866 C16.9640521,96.6147 17.7115707,102.3295 18.2581296,106.5025 C18.7790886,110.4844 18.8443685,112.2563 17.3646913,113.7734 C15.6955745,115.4855 13.4734988,116.2057 10.8994237,117.039 C10.3963846,117.2015 9.88310562,117.3731 9.35958662,117.546 C2.15448038,119.9263 0.261363996,129.5424 0.00280448964,129.9883 C-0.00231550058,129.9974 -0.00103550302,130 0.0117644725,130 C0.372723783,129.9753 6.91607128,125.3694 11.9554217,124.3541 C15.1170156,123.7171 20.5147653,123.4753 23.7339592,120.1746 C28.4545901,115.3308 27.6955516,109.5341 27.1413127,105.3026 C26.6331536,101.4221 26.5627538,99.6996 27.9400311,98.2878 C30.4270664,95.7346 32.7656219,95.3212 35.7275363,94.796 Z" id="svg_3" fill="#DADADA"></path>
                </g>
            </g>
        </g>
    </g>
</svg>